<?xml version="1.0" encoding="utf-8"?>
<!-- Generator: Adobe Illustrator 27.9.6, SVG Export Plug-In . SVG Version: 9.03 Build 54986)  -->
<svg version="1.1" id="Layer_1" xmlns="http://www.w3.org/2000/svg" xmlns:xlink="http://www.w3.org/1999/xlink" x="0px" y="0px"
	 viewBox="0 0 699.6 250.8" style="enable-background:new 0 0 699.6 250.8;" xml:space="preserve">
<style type="text/css">
	.st0{fill:#1F6C84;}
</style>
<g>
	<g>
		<path class="st0" d="M42.2,109.8c-5.4,0-9.8-0.9-13.3-2.8c-3.5-1.9-6.1-3.6-7.6-5.2l5.9-15.6c1,0.7,2.1,1.3,3.4,1.8
			c1.3,0.5,2.6,0.7,4.1,0.7c1.5,0,2.8-0.3,3.7-0.9c0.9-0.6,1.6-1.5,2-2.7c0.4-1.2,0.6-2.6,0.6-4.3v-38c0-2.4-0.3-4.1-1-5.1
			c-0.7-1-1.8-1.6-3.4-1.6c-1.2,0-2.5,0.4-3.9,1.1c-1.4,0.7-2.7,1.8-4,3.1v51.6l-4.2,7.1l-0.9,9.2H1V0h27.6v21.5
			c2.8-2.7,5.8-4.9,9-6.5c3.3-1.6,7.2-2.4,11.8-2.4c5.9,0,10.5,1.9,14.1,5.8c3.5,3.9,5.3,10.3,5.3,19.2v44.9c0,5.4-1,10.1-3.1,14.2
			c-2.1,4.1-5.1,7.3-9,9.6C52.7,108.6,47.9,109.8,42.2,109.8z"/>
		<path class="st0" d="M75.9,10.7V0h28.3v10.7H75.9z M75.9,108.1V14.1h28.3v93.9H75.9z"/>
		<path class="st0" d="M111.9,108.1V0h28.3v108.1H111.9z"/>
		<path class="st0" d="M166.9,109.6c-5.9,0-10.6-1.9-14.2-5.8c-3.6-3.9-5.4-10.2-5.4-19.1V39.7c0-5.3,1-10,3.1-14
			c2.1-4.1,5.1-7.3,9.1-9.6c4-2.3,8.8-3.5,14.5-3.5c3.5,0,6.7,0.5,9.5,1.5c2.8,1,5.2,2.1,7.1,3.4c1.9,1.3,3.4,2.3,4.4,3.1l-5.9,15.2
			c-1-0.5-2.2-1.1-3.4-1.6c-1.2-0.6-2.6-0.9-4.2-0.9c-1.5,0-2.8,0.3-3.7,0.9c-0.9,0.6-1.6,1.6-2.1,2.8c-0.4,1.2-0.7,2.7-0.7,4.4V79
			c0,2.4,0.4,4.2,1.2,5.3c0.8,1.1,1.9,1.7,3.4,1.7c1.3,0,2.6-0.4,4-1.1c1.4-0.8,2.7-1.8,3.9-3.2V30.1l-0.5-7.1V0h28.2v108.1h-27.5
			v-7.2c-2.8,2.8-5.8,5-9,6.5C175.4,108.9,171.5,109.6,166.9,109.6z"/>
		<path class="st0" d="M284.8,109.8c-5.4,0-9.8-0.9-13.3-2.8c-3.5-1.9-6.1-3.6-7.6-5.2l5.9-15.6c1,0.7,2.1,1.3,3.4,1.8
			c1.3,0.5,2.6,0.7,4.1,0.7c1.5,0,2.8-0.3,3.7-0.9c0.9-0.6,1.6-1.5,2-2.7c0.4-1.2,0.6-2.6,0.6-4.3v-38c0-2.4-0.3-4.1-1-5.1
			c-0.7-1-1.8-1.6-3.4-1.6c-1.2,0-2.5,0.4-3.9,1.1c-1.4,0.7-2.7,1.8-4,3.1v51.6l-4.2,7.1l-0.9,9.2h-22.5V0h27.6v21.5
			c2.8-2.7,5.8-4.9,9-6.5c3.3-1.6,7.2-2.4,11.8-2.4c5.9,0,10.5,1.9,14.1,5.8c3.5,3.9,5.3,10.3,5.3,19.2v44.9c0,5.4-1,10.1-3.1,14.2
			c-2.1,4.1-5.1,7.3-9,9.6C295.2,108.6,290.4,109.8,284.8,109.8z"/>
		<path class="st0" d="M318.4,10.7V0h28.3v10.7H318.4z M318.4,108.1V14.1h28.3v93.9H318.4z"/>
		<path class="st0" d="M354.4,108.1V0h28.3v108.1H354.4z"/>
		<path class="st0" d="M409.5,109.6c-5.9,0-10.6-1.9-14.2-5.8c-3.6-3.9-5.4-10.2-5.4-19.1V39.7c0-5.3,1-10,3.1-14
			c2.1-4.1,5.1-7.3,9.1-9.6c4-2.3,8.8-3.5,14.5-3.5c3.5,0,6.7,0.5,9.5,1.5c2.8,1,5.2,2.1,7.1,3.4c1.9,1.3,3.4,2.3,4.4,3.1l-5.9,15.2
			c-1-0.5-2.2-1.1-3.4-1.6c-1.2-0.6-2.6-0.9-4.2-0.9c-1.5,0-2.8,0.3-3.7,0.9c-0.9,0.6-1.6,1.6-2.1,2.8c-0.4,1.2-0.7,2.7-0.7,4.4V79
			c0,2.4,0.4,4.2,1.2,5.3c0.8,1.1,1.9,1.7,3.4,1.7c1.3,0,2.6-0.4,4-1.1c1.4-0.8,2.7-1.8,3.9-3.2V30.1l-0.5-7.1V0h28.2v108.1h-27.5
			v-7.2c-2.8,2.8-5.8,5-9,6.5C417.9,108.9,414,109.6,409.5,109.6z"/>
		<path class="st0" d="M527.3,109.8c-5.4,0-9.8-0.9-13.3-2.8c-3.5-1.9-6.1-3.6-7.6-5.2l5.9-15.6c1,0.7,2.1,1.3,3.4,1.8
			c1.3,0.5,2.6,0.7,4.1,0.7c1.5,0,2.8-0.3,3.7-0.9c0.9-0.6,1.6-1.5,2-2.7c0.4-1.2,0.6-2.6,0.6-4.3v-38c0-2.4-0.3-4.1-1-5.1
			c-0.7-1-1.8-1.6-3.4-1.6c-1.2,0-2.5,0.4-3.9,1.1c-1.4,0.7-2.7,1.8-4,3.1v51.6l-4.2,7.1l-0.9,9.2H486V0h27.6v21.5
			c2.8-2.7,5.8-4.9,9-6.5c3.3-1.6,7.2-2.4,11.8-2.4c5.9,0,10.5,1.9,14.1,5.8c3.5,3.9,5.3,10.3,5.3,19.2v44.9c0,5.4-1,10.1-3.1,14.2
			c-2.1,4.1-5.1,7.3-9,9.6C537.8,108.6,533,109.8,527.3,109.8z"/>
		<path class="st0" d="M561,10.7V0h28.3v10.7H561z M561,108.1V14.1h28.3v93.9H561z"/>
		<path class="st0" d="M597,108.1V0h28.3v108.1H597z"/>
		<path class="st0" d="M652,109.6c-5.9,0-10.6-1.9-14.2-5.8c-3.6-3.9-5.4-10.2-5.4-19.1V39.7c0-5.3,1-10,3.1-14
			c2.1-4.1,5.1-7.3,9.1-9.6c4-2.3,8.8-3.5,14.5-3.5c3.5,0,6.7,0.5,9.5,1.5c2.8,1,5.2,2.1,7.1,3.4c1.9,1.3,3.4,2.3,4.4,3.1l-5.9,15.2
			c-1-0.5-2.2-1.1-3.4-1.6c-1.2-0.6-2.6-0.9-4.2-0.9c-1.5,0-2.8,0.3-3.7,0.9c-0.9,0.6-1.6,1.6-2.1,2.8c-0.4,1.2-0.7,2.7-0.7,4.4V79
			c0,2.4,0.4,4.2,1.2,5.3c0.8,1.1,1.9,1.7,3.4,1.7c1.3,0,2.6-0.4,4-1.1c1.4-0.8,2.7-1.8,3.9-3.2V30.1l-0.5-7.1V0h28.2v108.1h-27.5
			v-7.2c-2.8,2.8-5.8,5-9,6.5C660.4,108.9,656.5,109.6,652,109.6z"/>
		<path class="st0" d="M42.2,249.8c-5.4,0-9.8-0.9-13.3-2.8c-3.5-1.9-6.1-3.6-7.6-5.2l5.9-15.6c1,0.7,2.1,1.3,3.4,1.8
			c1.3,0.5,2.6,0.7,4.1,0.7c1.5,0,2.8-0.3,3.7-1c0.9-0.6,1.6-1.5,2-2.7c0.4-1.2,0.6-2.6,0.6-4.3v-38c0-2.4-0.3-4.1-1-5.1
			c-0.7-1-1.8-1.6-3.4-1.6c-1.2,0-2.5,0.4-3.9,1.1c-1.4,0.7-2.7,1.8-4,3.1v51.6l-4.2,7.1l-0.9,9.2H1V140h27.6v21.5
			c2.8-2.7,5.8-4.9,9-6.5s7.2-2.4,11.8-2.4c5.9,0,10.5,1.9,14.1,5.8c3.5,3.9,5.3,10.3,5.3,19.2v44.9c0,5.4-1,10.1-3.1,14.2
			c-2.1,4.1-5.1,7.3-9,9.6C52.7,248.6,47.9,249.8,42.2,249.8z"/>
		<path class="st0" d="M75.9,150.7V140h28.3v10.7H75.9z M75.9,248.1v-93.9h28.3v93.9H75.9z"/>
		<path class="st0" d="M111.9,248.1V140h28.3v108.1H111.9z"/>
		<path class="st0" d="M166.9,249.6c-5.9,0-10.6-1.9-14.2-5.8c-3.6-3.9-5.4-10.2-5.4-19.1v-45.1c0-5.3,1-10,3.1-14
			c2.1-4.1,5.1-7.3,9.1-9.6c4-2.3,8.8-3.5,14.5-3.5c3.5,0,6.7,0.5,9.5,1.5c2.8,1,5.2,2.1,7.1,3.4c1.9,1.3,3.4,2.3,4.4,3.1l-5.9,15.2
			c-1-0.5-2.2-1.1-3.4-1.6c-1.2-0.6-2.6-0.9-4.2-0.9c-1.5,0-2.8,0.3-3.7,0.9c-0.9,0.6-1.6,1.6-2.1,2.8c-0.4,1.2-0.7,2.7-0.7,4.4V219
			c0,2.4,0.4,4.2,1.2,5.3c0.8,1.1,1.9,1.7,3.4,1.7c1.3,0,2.6-0.4,4-1.1c1.4-0.8,2.7-1.8,3.9-3.2v-51.5l-0.5-7.1V140h28.2v108.1
			h-27.5v-7.2c-2.8,2.8-5.8,5-9,6.5C175.4,248.9,171.5,249.6,166.9,249.6z"/>
		<path class="st0" d="M284.8,249.8c-5.4,0-9.8-0.9-13.3-2.8c-3.5-1.9-6.1-3.6-7.6-5.2l5.9-15.6c1,0.7,2.1,1.3,3.4,1.8
			c1.3,0.5,2.6,0.7,4.1,0.7c1.5,0,2.8-0.3,3.7-1c0.9-0.6,1.6-1.5,2-2.7c0.4-1.2,0.6-2.6,0.6-4.3v-38c0-2.4-0.3-4.1-1-5.1
			c-0.7-1-1.8-1.6-3.4-1.6c-1.2,0-2.5,0.4-3.9,1.1c-1.4,0.7-2.7,1.8-4,3.1v51.6l-4.2,7.1l-0.9,9.2h-22.5V140h27.6v21.5
			c2.8-2.7,5.8-4.9,9-6.5s7.2-2.4,11.8-2.4c5.9,0,10.5,1.9,14.1,5.8c3.5,3.9,5.3,10.3,5.3,19.2v44.9c0,5.4-1,10.1-3.1,14.2
			c-2.1,4.1-5.1,7.3-9,9.6C295.2,248.6,290.4,249.8,284.8,249.8z"/>
		<path class="st0" d="M318.4,150.7V140h28.3v10.7H318.4z M318.4,248.1v-93.9h28.3v93.9H318.4z"/>
		<path class="st0" d="M354.4,248.1V140h28.3v108.1H354.4z"/>
		<path class="st0" d="M409.5,249.6c-5.9,0-10.6-1.9-14.2-5.8c-3.6-3.9-5.4-10.2-5.4-19.1v-45.1c0-5.3,1-10,3.1-14s5.1-7.3,9.1-9.6
			c4-2.3,8.8-3.5,14.5-3.5c3.5,0,6.7,0.5,9.5,1.5c2.8,1,5.2,2.1,7.1,3.4c1.9,1.3,3.4,2.3,4.4,3.1l-5.9,15.2c-1-0.5-2.2-1.1-3.4-1.6
			c-1.2-0.6-2.6-0.9-4.2-0.9c-1.5,0-2.8,0.3-3.7,0.9c-0.9,0.6-1.6,1.6-2.1,2.8c-0.4,1.2-0.7,2.7-0.7,4.4V219c0,2.4,0.4,4.2,1.2,5.3
			c0.8,1.1,1.9,1.7,3.4,1.7c1.3,0,2.6-0.4,4-1.1c1.4-0.8,2.7-1.8,3.9-3.2v-51.5l-0.5-7.1V140h28.2v108.1h-27.5v-7.2
			c-2.8,2.8-5.8,5-9,6.5C417.9,248.9,414,249.6,409.5,249.6z"/>
		<path class="st0" d="M527.3,249.8c-5.4,0-9.8-0.9-13.3-2.8c-3.5-1.9-6.1-3.6-7.6-5.2l5.9-15.6c1,0.7,2.1,1.3,3.4,1.8
			c1.3,0.5,2.6,0.7,4.1,0.7c1.5,0,2.8-0.3,3.7-1c0.9-0.6,1.6-1.5,2-2.7c0.4-1.2,0.6-2.6,0.6-4.3v-38c0-2.4-0.3-4.1-1-5.1
			c-0.7-1-1.8-1.6-3.4-1.6c-1.2,0-2.5,0.4-3.9,1.1c-1.4,0.7-2.7,1.8-4,3.1v51.6l-4.2,7.1l-0.9,9.2H486V140h27.6v21.5
			c2.8-2.7,5.8-4.9,9-6.5c3.3-1.6,7.2-2.4,11.8-2.4c5.9,0,10.5,1.9,14.1,5.8c3.5,3.9,5.3,10.3,5.3,19.2v44.9c0,5.4-1,10.1-3.1,14.2
			c-2.1,4.1-5.1,7.3-9,9.6C537.8,248.6,533,249.8,527.3,249.8z"/>
		<path class="st0" d="M561,150.7V140h28.3v10.7H561z M561,248.1v-93.9h28.3v93.9H561z"/>
		<path class="st0" d="M597,248.1V140h28.3v108.1H597z"/>
		<path class="st0" d="M652,249.6c-5.9,0-10.6-1.9-14.2-5.8c-3.6-3.9-5.4-10.2-5.4-19.1v-45.1c0-5.3,1-10,3.1-14s5.1-7.3,9.1-9.6
			c4-2.3,8.8-3.5,14.5-3.5c3.5,0,6.7,0.5,9.5,1.5c2.8,1,5.2,2.1,7.1,3.4c1.9,1.3,3.4,2.3,4.4,3.1l-5.9,15.2c-1-0.5-2.2-1.1-3.4-1.6
			c-1.2-0.6-2.6-0.9-4.2-0.9c-1.5,0-2.8,0.3-3.7,0.9c-0.9,0.6-1.6,1.6-2.1,2.8c-0.4,1.2-0.7,2.7-0.7,4.4V219c0,2.4,0.4,4.2,1.2,5.3
			c0.8,1.1,1.9,1.7,3.4,1.7c1.3,0,2.6-0.4,4-1.1c1.4-0.8,2.7-1.8,3.9-3.2v-51.5l-0.5-7.1V140h28.2v108.1h-27.5v-7.2
			c-2.8,2.8-5.8,5-9,6.5C660.4,248.9,656.5,249.6,652,249.6z"/>
	</g>
</g>
</svg>
