<?xml version="1.0" encoding="utf-8"?>
<!-- Generator: Adobe Illustrator 27.9.6, SVG Export Plug-In . SVG Version: 9.03 Build 54986)  -->
<svg version="1.1" id="Layer_1" xmlns="http://www.w3.org/2000/svg" xmlns:xlink="http://www.w3.org/1999/xlink" x="0px" y="0px"
	 viewBox="0 0 1346.5 844.9" style="enable-background:new 0 0 1346.5 844.9;" xml:space="preserve">
<style type="text/css">
	.st0{opacity:0.99;}
	.st1{fill:#1F6C84;}
</style>
<g class="st0">
	<g>
		<g>
			<path class="st1" d="M33.8,122.4c-5.5-0.1-10.4-1.1-14.7-3.3c-4.4-2.1-7.9-5.2-10.5-9.2l1-1.1c2.4,3.8,5.7,6.8,9.9,8.9
				c4.1,2.1,8.9,3.1,14.2,3.1c5.9,0,10.7-1.2,14.3-3.7s6.2-5.9,7.8-10.1c1.6-4.3,2.4-9.1,2.4-14.5V65c0-9.5-1.8-16.8-5.3-21.6
				c-3.6-4.9-8.7-7.3-15.5-7.3c-5.8,0-10.9,1.8-15,5.3c-4.2,3.5-8.4,8.5-12.7,14.8v54.1v0.3v11.1H8V-0.7h1.7v54.2
				c4.1-6.1,8.3-10.8,12.6-14.1c4.3-3.3,9.3-5,15.2-5c7,0,12.5,2.5,16.5,7.4c4,5,6,12.7,6,23.2v27.5c0,5.6-0.9,10.7-2.6,15.2
				c-1.7,4.6-4.5,8.2-8.3,10.8C45.2,121.2,40.1,122.5,33.8,122.4z"/>
			<path class="st1" d="M35.1,242.5c-5.5-0.1-10.4-1.2-14.7-3.3c-4.4-2.2-7.8-5.1-10.3-8.9l1.5-3c2.4,3.7,5.6,6.4,9.7,8.4
				c4.1,1.9,8.6,2.9,13.5,2.9c5.6,0,10.1-1.1,13.4-3.4c3.3-2.3,5.7-5.4,7.2-9.3c1.5-3.9,2.2-8.4,2.2-13.4v-28c0-8.9-1.6-15.5-4.9-20
				c-3.3-4.5-8-6.8-14.3-6.8c-5.5,0-10.4,1.8-14.4,5.5c-4.1,3.7-8.2,8.5-12.3,14.4v52l0.1,1l0.1,11.1H7.5V119.2h4.3v52.5
				c3.8-5.6,7.9-10,12.2-13.2c4.2-3.2,9.3-4.8,15.3-4.8c7,0,12.6,2.4,16.7,7.3c4,4.9,6.1,12.5,6.1,22.9v28.7
				c0,5.6-0.9,10.7-2.8,15.2c-1.9,4.6-4.8,8.2-8.7,10.8C46.4,241.3,41.3,242.6,35.1,242.5z"/>
			<path class="st1" d="M37.4,362.7c-5.5,0-10.4-1.1-14.8-3.4c-4.3-2.3-7.8-5.1-10.2-8.5l2.3-5.7c2.3,3.3,5.5,5.8,9.3,7.5
				c3.9,1.7,8,2.5,12.3,2.5c5,0,9-1,12-3c2.9-2,5.1-4.7,6.4-8.1c1.3-3.4,1.9-7.3,1.9-11.5v-28.9c0-7.8-1.4-13.6-4.2-17.5
				s-7-5.9-12.5-5.9c-5.1,0-9.5,1.7-13.3,5c-3.9,3.4-7.7,7.7-11.6,13v50.2l0.2,2.1l0.2,11.2H6.7V239h8.2v49.9
				c3.5-4.7,7.4-8.6,11.6-11.7s9.4-4.6,15.6-4.6c7.2,0,12.8,2.4,16.9,7.2c4.1,4.8,6.1,12.3,6.1,22.5v30.8c0,5.7-1,10.7-3.1,15.2
				c-2.1,4.5-5.2,8.1-9.3,10.6C48.5,361.4,43.4,362.7,37.4,362.7z"/>
			<path class="st1" d="M39.6,482.8c-5.6,0-10.6-1.2-14.9-3.5s-7.6-5-9.9-8.1l3-8.5c2.3,3,5.3,5.3,9,6.7s7.5,2.1,11.2,2.1
				c4.5,0,8-0.8,10.6-2.5c2.6-1.7,4.4-3.9,5.5-6.8s1.7-6.1,1.7-9.6v-29.9c0-6.5-1.2-11.5-3.6-14.9c-2.4-3.4-6-5.1-10.6-5.1
				s-8.7,1.5-12.3,4.6c-3.7,3.1-7.3,6.9-11,11.6v48.4l0.5,3.2l0.2,11.2H5.9V358.8h12.2V406c3.2-3.8,6.9-7.2,11-10.2
				c4.1-2.9,9.4-4.4,15.8-4.4c7.4,0,13.1,2.3,17.2,7s6.1,12,6.1,22v32.9c0,5.7-1.2,10.8-3.5,15.2c-2.3,4.5-5.6,8-9.9,10.5
				C50.6,481.5,45.5,482.8,39.6,482.8z"/>
			<path class="st1" d="M42.1,603c-5.8,0-10.7-1.1-15-3.4c-4.2-2.3-7.4-4.8-9.6-7.5l4-11.1c2,2.4,4.5,4.2,7.6,5.4s6.2,1.8,9.4,1.8
				c3.8,0,6.7-0.7,8.8-2.1c2.1-1.4,3.7-3.3,4.6-5.8c0.9-2.4,1.4-5.2,1.4-8.3v-29.9c0-5.5-1-9.6-2.9-12.4c-2-2.7-4.9-4.1-8.8-4.1
				c-3.7,0-7.1,1.2-10.2,3.7s-6.1,5.5-9.2,9.3v47.6l-1,4.6l-0.2,11H4.6V478.6h17.6v44.6c3.2-3.6,6.8-6.8,10.9-9.5
				c4.1-2.6,9.1-4,15.2-4c7.2,0,12.8,2.3,16.9,6.9c4.1,4.6,6.1,11.9,6.1,22v34.3c0,5.8-1.2,11-3.5,15.5c-2.4,4.5-5.7,8.1-10,10.6
				C53.4,601.8,48.2,603,42.1,603z"/>
			<path class="st1" d="M44,723.2c-5.8,0-10.9-1.1-15-3.3c-4.2-2.2-7.3-4.6-9.3-7l4.8-13.1c1.7,2,3.9,3.4,6.5,4.4s5.3,1.5,8,1.5
				c3.1,0,5.6-0.6,7.5-1.8c1.8-1.2,3.2-2.9,4-5s1.2-4.6,1.2-7.4v-29.9c0-4.6-0.8-8.1-2.4-10.5c-1.6-2.3-4.1-3.5-7.4-3.5
				c-3,0-5.8,1-8.5,3s-5.3,4.5-7.9,7.6v47l-2.1,5.5L23,721.6H3.7V598.4h21.7v42.8c3.2-3.5,6.7-6.4,10.7-8.8
				c3.9-2.4,8.8-3.6,14.7-3.6c7.1,0,12.6,2.3,16.7,6.8s6.1,11.9,6.1,22V693c0,5.9-1.2,11.1-3.5,15.7c-2.4,4.6-5.7,8.1-10.1,10.7
				C55.5,721.9,50.2,723.2,44,723.2z"/>
			<path class="st1" d="M47.4,843.6c-6.1,0-11.2-1.1-15.2-3.3s-7-4.3-8.9-6.3l6.2-16.6c1.3,1.1,2.9,2,4.7,2.7c1.7,0.7,3.6,1,5.5,1
				c2.1,0,3.8-0.4,5-1.3c1.2-0.8,2.2-2.1,2.7-3.6c0.6-1.6,0.9-3.4,0.9-5.6v-30c0-3.2-0.5-5.5-1.5-7s-2.6-2.2-4.8-2.2
				c-1.8,0-3.6,0.6-5.5,1.7c-1.8,1.2-3.7,2.7-5.5,4.7v46l-4,7.4l-0.9,10.6H2V718.1h29v39.3c3.2-3.2,6.6-5.8,10.4-7.8s8.4-3,13.8-3
				c6.8,0,12.2,2.2,16.3,6.7s6.1,11.8,6.1,22v37.2c0,6.1-1.2,11.5-3.6,16.1s-5.8,8.3-10.3,11C59.3,842.2,53.8,843.6,47.4,843.6z"/>
		</g>
	</g>
</g>
<g class="st0">
	<g>
		<g>
			<path class="st1" d="M1299.5,119.2c-3.8-2.7-6.6-6.3-8.3-10.8c-1.7-4.5-2.6-9.6-2.6-15.2V65.7c0-10.5,2-18.2,6-23.2
				s9.5-7.4,16.5-7.4c5.8,0,10.9,1.7,15.2,5c4.3,3.3,8.5,8,12.6,14.1V0h1.7v122.4h-1.7v-11.1V111V56.8c-4.3-6.3-8.5-11.3-12.7-14.8
				s-9.2-5.3-15-5.3c-6.8,0-12,2.4-15.5,7.3s-5.3,12.1-5.3,21.6v27.5c0,5.4,0.8,10.2,2.4,14.5s4.2,7.6,7.8,10.1
				c3.6,2.5,8.3,3.7,14.3,3.7c5.4,0,10.1-1.1,14.2-3.1c4.2-2.1,7.5-5,9.9-8.9l1,1.1c-2.6,4-6.1,7.1-10.5,9.2
				c-4.4,2.2-9.3,3.2-14.7,3.3C1308.3,123.2,1303.3,121.9,1299.5,119.2z"/>
			<path class="st1" d="M1298.1,239.3c-3.9-2.6-6.9-6.2-8.7-10.8c-1.9-4.5-2.8-9.6-2.8-15.2v-28.7c0-10.4,2-18,6.1-22.9
				c4-4.8,9.6-7.3,16.7-7.3c6,0,11.1,1.6,15.3,4.8c4.2,3.2,8.3,7.6,12.2,13.2v-52.5h4.3v122.5h-4.4l0.1-11.1l0.1-1v-52
				c-4.1-5.9-8.2-10.7-12.3-14.4c-4.1-3.6-8.9-5.5-14.4-5.5c-6.2,0-11,2.2-14.3,6.8c-3.3,4.5-4.9,11.2-4.9,20v28
				c0,5,0.7,9.5,2.2,13.4s3.9,7,7.2,9.3c3.3,2.3,7.8,3.4,13.4,3.4c5,0,9.5-1,13.5-2.9c4.1-1.9,7.3-4.7,9.7-8.4l1.5,3
				c-2.5,3.8-5.9,6.7-10.3,8.9s-9.3,3.3-14.7,3.3C1307.1,243.3,1302,242,1298.1,239.3z"/>
			<path class="st1" d="M1295.8,359.5c-4.1-2.6-7.2-6.1-9.3-10.6c-2.1-4.5-3.1-9.6-3.1-15.2v-30.8c0-10.2,2-17.7,6.1-22.5
				c4-4.8,9.7-7.2,16.9-7.2c6.2,0,11.4,1.6,15.6,4.6c4.2,3.1,8.1,7,11.6,11.7v-49.9h8.2v122.7h-8.7l0.2-11.2l0.2-2.1v-50.2
				c-3.9-5.3-7.8-9.6-11.6-13c-3.8-3.3-8.3-5-13.3-5c-5.5,0-9.7,2-12.5,5.9s-4.2,9.8-4.2,17.5v28.9c0,4.2,0.7,8.1,1.9,11.5
				c1.3,3.4,3.4,6.1,6.4,8.1s7,3,12,3c4.4,0,8.5-0.8,12.3-2.5c3.9-1.7,7-4.2,9.3-7.5l2.3,5.7c-2.4,3.4-5.8,6.2-10.2,8.5
				c-4.4,2.3-9.3,3.4-14.8,3.4C1305,363.4,1299.9,362.1,1295.8,359.5z"/>
			<path class="st1" d="M1293.5,479.7c-4.3-2.5-7.6-6-9.9-10.5c-2.3-4.4-3.5-9.5-3.5-15.2v-33c0-10,2-17.3,6.1-22
				c4.1-4.6,9.8-7,17.2-7c6.4,0,11.7,1.5,15.8,4.4c4.2,3,7.8,6.4,11,10.2v-47.2h12.2v122.9h-13.1l0.2-11.2l0.5-3.2v-48.3
				c-3.6-4.6-7.3-8.5-11-11.6c-3.6-3.1-7.7-4.6-12.3-4.6c-4.7,0-8.2,1.7-10.6,5.1s-3.6,8.3-3.6,14.9v29.9c0,3.6,0.6,6.8,1.7,9.6
				c1.1,2.9,2.9,5.2,5.5,6.8c2.6,1.7,6.1,2.5,10.6,2.5c3.8,0,7.5-0.7,11.2-2.1s6.7-3.7,9-6.7l3,8.5c-2.3,3-5.6,5.7-9.9,8.1
				c-4.3,2.3-9.3,3.5-14.9,3.5C1302.9,483.5,1297.8,482.2,1293.5,479.7z"/>
			<path class="st1" d="M1290.7,599.9c-4.3-2.6-7.7-6.1-10-10.6s-3.5-9.7-3.5-15.5v-34.3c0-10,2-17.4,6.1-22s9.7-6.9,16.9-6.9
				c6.1,0,11.1,1.3,15.2,4c4,2.7,7.7,5.8,10.9,9.5v-44.6h17.6v123.1h-16.7l-0.2-11l-1-4.6v-47.6c-3-3.8-6.1-6.8-9.2-9.3
				c-3.1-2.4-6.5-3.7-10.2-3.7c-3.9,0-6.8,1.4-8.8,4.1c-2,2.8-2.9,6.9-2.9,12.4v29.9c0,3.1,0.5,5.9,1.4,8.3c0.9,2.5,2.5,4.4,4.6,5.8
				c2.2,1.4,5.1,2.1,8.8,2.1c3.2,0,6.3-0.6,9.4-1.8s5.6-3,7.6-5.4l4,11.1c-2.2,2.7-5.4,5.2-9.6,7.5s-9.2,3.4-15,3.4
				C1300.2,603.7,1295,602.5,1290.7,599.9z"/>
			<path class="st1" d="M1288.5,720c-4.4-2.6-7.8-6.2-10.1-10.7c-2.3-4.5-3.5-9.8-3.5-15.7v-35.4c0-10.1,2-17.4,6.1-22
				s9.6-6.8,16.7-6.8c5.8,0,10.8,1.2,14.7,3.6c4,2.4,7.5,5.4,10.7,8.8V599h21.7v123.3h-19.3l-0.4-10.9l-2.1-5.5v-47
				c-2.6-3.1-5.2-5.6-7.9-7.6c-2.6-2-5.5-3-8.5-3c-3.3,0-5.8,1.2-7.4,3.5s-2.4,5.8-2.4,10.5v29.9c0,2.8,0.4,5.3,1.2,7.4
				c0.8,2.1,2.1,3.8,4,5s4.4,1.8,7.5,1.8c2.8,0,5.4-0.5,8-1.5s4.8-2.5,6.5-4.4l4.8,13.1c-2,2.5-5.2,4.8-9.3,7
				c-4.2,2.2-9.2,3.3-15,3.3C1298.2,723.9,1292.9,722.6,1288.5,720z"/>
			<path class="st1" d="M1284.6,840.3c-4.5-2.7-7.9-6.3-10.3-11s-3.6-10-3.6-16.1V776c0-10.2,2-17.5,6.1-22s9.5-6.7,16.3-6.7
				c5.4,0,10,1,13.8,3s7.3,4.6,10.4,7.8v-39.3h29v123.6h-24.1l-0.9-10.6l-4-7.4v-46c-1.8-2-3.6-3.5-5.5-4.7
				c-1.8-1.1-3.7-1.7-5.5-1.7c-2.2,0-3.8,0.8-4.8,2.2c-1,1.5-1.5,3.9-1.5,7v30c0,2.2,0.3,4,0.9,5.6s1.5,2.8,2.7,3.6
				c1.2,0.9,2.9,1.3,5,1.3c2,0,3.8-0.3,5.5-1c1.8-0.7,3.3-1.6,4.7-2.7l6.2,16.6c-1.9,2-4.9,4.1-8.9,6.3s-9.1,3.3-15.2,3.3
				C1294.6,844.3,1289.1,842.9,1284.6,840.3z"/>
		</g>
	</g>
</g>
</svg>
