<?xml version="1.0" encoding="utf-8"?>
<!-- Generator: Adobe Illustrator 27.9.6, SVG Export Plug-In . SVG Version: 9.03 Build 54986)  -->
<svg version="1.1" id="Layer_1" xmlns="http://www.w3.org/2000/svg" xmlns:xlink="http://www.w3.org/1999/xlink" x="0px" y="0px"
	 viewBox="0 0 1346.5 1022.7" style="enable-background:new 0 0 1346.5 1022.7;" xml:space="preserve">
<style type="text/css">
	.st0{opacity:0.99;}
	.st1{fill:#1F6C84;}
</style>
<g class="st0">
	<g>
		<g>
			<path class="st1" d="M37.7,139.7c-6.2-0.1-11.7-1.2-16.5-3.7c-4.9-2.4-8.9-5.8-11.8-10.3l1.1-1.2c2.7,4.3,6.4,7.6,11.1,10
				c4.6,2.4,10,3.5,16,3.5c6.6,0,12-1.3,16.1-4.2s7-6.6,8.8-11.3c1.8-4.8,2.7-10.2,2.7-16.3V75.2c0-10.7-2-18.9-6-24.3
				c-4-5.5-9.8-8.2-17.4-8.2c-6.5,0-12.2,2-16.9,6c-4.7,3.9-9.4,9.6-14.3,16.6v60.8v0.3v12.5H8.7V1.3h1.9v60.9
				c4.6-6.9,9.3-12.1,14.2-15.8s10.5-5.6,17.1-5.6c7.9,0,14,2.8,18.5,8.3c4.5,5.6,6.7,14.3,6.7,26.1v30.9c0,6.3-1,12-2.9,17.1
				c-1.9,5.2-5.1,9.2-9.3,12.1C50.5,138.3,44.8,139.8,37.7,139.7z"/>
			<path class="st1" d="M39.2,274.6c-6.2-0.1-11.7-1.3-16.5-3.7c-4.9-2.5-8.8-5.7-11.6-10l1.7-3.4c2.7,4.2,6.3,7.2,10.9,9.4
				c4.6,2.1,9.7,3.3,15.2,3.3c6.3,0,11.3-1.2,15.1-3.8c3.7-2.6,6.4-6.1,8.1-10.5c1.7-4.4,2.5-9.4,2.5-15.1v-31.5
				c0-10-1.8-17.4-5.5-22.5c-3.7-5.1-9-7.6-16.1-7.6c-6.2,0-11.7,2-16.2,6.2c-4.6,4.2-9.2,9.6-13.8,16.2v58.4l0.1,1.1l0.1,12.5H8.2
				V136.1H13v59c4.3-6.3,8.9-11.2,13.7-14.8c4.7-3.6,10.5-5.4,17.2-5.4c7.9,0,14.2,2.7,18.8,8.2c4.5,5.5,6.9,14,6.9,25.7V241
				c0,6.3-1,12-3.1,17.1c-2.1,5.2-5.4,9.2-9.8,12.1C51.9,273.3,46.2,274.7,39.2,274.6z"/>
			<path class="st1" d="M41.8,409.7c-6.2,0-11.7-1.2-16.6-3.8c-4.8-2.6-8.8-5.7-11.5-9.6l2.6-6.4c2.6,3.7,6.2,6.5,10.5,8.4
				c4.4,1.9,9,2.8,13.8,2.8c5.6,0,10.1-1.1,13.5-3.4c3.3-2.2,5.7-5.3,7.2-9.1c1.5-3.8,2.1-8.2,2.1-12.9v-32.5
				c0-8.8-1.6-15.3-4.7-19.7s-7.9-6.6-14-6.6c-5.7,0-10.7,1.9-14.9,5.6c-4.4,3.8-8.7,8.7-13,14.6v56.4l0.2,2.4l0.2,12.6H7.3V270.7
				h9.2v56.1c3.9-5.3,8.3-9.7,13-13.1c4.7-3.5,10.6-5.2,17.5-5.2c8.1,0,14.4,2.7,19,8.1c4.6,5.4,6.9,13.8,6.9,25.3v34.6
				c0,6.4-1.1,12-3.5,17.1s-5.8,9.1-10.5,11.9C54.3,408.2,48.5,409.7,41.8,409.7z"/>
			<path class="st1" d="M44.2,544.6c-6.3,0-11.9-1.3-16.7-3.9s-8.5-5.6-11.1-9.1l3.4-9.6c2.6,3.4,6,6,10.1,7.5
				c4.2,1.6,8.4,2.4,12.6,2.4c5.1,0,9-0.9,11.9-2.8c2.9-1.9,4.9-4.4,6.2-7.6s1.9-6.9,1.9-10.8v-33.6c0-7.3-1.3-12.9-4-16.7
				c-2.7-3.8-6.7-5.7-11.9-5.7s-9.8,1.7-13.8,5.2c-4.2,3.5-8.2,7.8-12.4,13v54.4l0.6,3.6l0.2,12.6H6.4V405.3h13.7v53
				c3.6-4.3,7.8-8.1,12.4-11.5c4.6-3.3,10.6-4.9,17.8-4.9c8.3,0,14.7,2.6,19.3,7.9c4.6,5.3,6.9,13.5,6.9,24.7v37
				c0,6.4-1.3,12.1-3.9,17.1c-2.6,5.1-6.3,9-11.1,11.8C56.6,543.2,50.9,544.6,44.2,544.6z"/>
			<path class="st1" d="M47.1,679.7c-6.5,0-12-1.2-16.9-3.8c-4.7-2.6-8.3-5.4-10.8-8.4l4.5-12.5c2.2,2.7,5.1,4.7,8.5,6.1
				c3.5,1.3,7,2,10.6,2c4.3,0,7.5-0.8,9.9-2.4c2.4-1.6,4.2-3.7,5.2-6.5c1-2.7,1.6-5.8,1.6-9.3v-33.6c0-6.2-1.1-10.8-3.3-13.9
				c-2.2-3-5.5-4.6-9.9-4.6c-4.2,0-8,1.3-11.5,4.2s-6.9,6.2-10.3,10.5v53.5l-1.1,5.2l-0.2,12.4H4.9V539.9h19.8V590
				c3.6-4,7.6-7.6,12.2-10.7c4.6-2.9,10.2-4.5,17.1-4.5c8.1,0,14.4,2.6,19,7.8c4.6,5.2,6.9,13.4,6.9,24.7v38.5
				c0,6.5-1.3,12.4-3.9,17.4c-2.7,5.1-6.4,9.1-11.2,11.9C59.8,678.3,53.9,679.7,47.1,679.7z"/>
			<path class="st1" d="M49.2,814.8c-6.5,0-12.2-1.2-16.9-3.7c-4.7-2.5-8.2-5.2-10.5-7.9l5.4-14.7c1.9,2.2,4.4,3.8,7.3,4.9
				c2.9,1.1,6,1.7,9,1.7c3.5,0,6.3-0.7,8.4-2c2-1.3,3.6-3.3,4.5-5.6c0.9-2.4,1.3-5.2,1.3-8.3v-33.6c0-5.2-0.9-9.1-2.7-11.8
				c-1.8-2.6-4.6-3.9-8.3-3.9c-3.4,0-6.5,1.1-9.6,3.4s-6,5.1-8.9,8.5v52.8l-2.4,6.2L25.6,813H3.9V674.5h24.4v48.1
				c3.6-3.9,7.5-7.2,12-9.9c4.4-2.7,9.9-4,16.5-4c8,0,14.2,2.6,18.8,7.6c4.6,5.1,6.9,13.4,6.9,24.7v39.8c0,6.6-1.3,12.5-3.9,17.6
				c-2.7,5.2-6.4,9.1-11.3,12C62.1,813.3,56.2,814.8,49.2,814.8z"/>
			<path class="st1" d="M53,950c-6.9,0-12.6-1.2-17.1-3.7c-4.5-2.5-7.9-4.8-10-7.1l7-18.7c1.5,1.2,3.3,2.2,5.3,3
				c1.9,0.8,4,1.1,6.2,1.1c2.4,0,4.3-0.4,5.6-1.5c1.3-0.9,2.5-2.4,3-4c0.7-1.8,1-3.8,1-6.3v-33.7c0-3.6-0.6-6.2-1.7-7.9
				c-1.1-1.7-2.9-2.5-5.4-2.5c-2,0-4,0.7-6.2,1.9c-2,1.3-4.2,3-6.2,5.3v51.7l-4.5,8.3l-1,11.9H2V809h32.6v44.2
				c3.6-3.6,7.4-6.5,11.7-8.8s9.4-3.4,15.5-3.4c7.6,0,13.7,2.5,18.3,7.5c4.6,5.1,6.9,13.3,6.9,24.7v41.8c0,6.9-1.3,12.9-4,18.1
				c-2.7,5.2-6.5,9.3-11.6,12.4C66.4,948.5,60.2,950,53,950z"/>
		</g>
	</g>
</g>
<g class="st0">
	<g>
		<g>
			<path class="st1" d="M1292.7,134.6c-4.3-3-7.4-7.1-9.3-12.1c-1.9-5.1-2.9-10.8-2.9-17.1V74.5c0-11.8,2.2-20.5,6.7-26.1
				s10.7-8.3,18.5-8.3c6.5,0,12.2,1.9,17.1,5.6c4.8,3.7,9.6,9,14.2,15.8V0.7h1.9v137.5h-1.9v-12.5v-0.3V64.5
				c-4.8-7.1-9.6-12.7-14.3-16.6c-4.7-3.9-10.3-6-16.9-6c-7.6,0-13.5,2.7-17.4,8.2c-3.9,5.5-6,13.6-6,24.3v30.9
				c0,6.1,0.9,11.5,2.7,16.3c1.8,4.8,4.7,8.5,8.8,11.3c4,2.8,9.3,4.2,16.1,4.2c6.1,0,11.3-1.2,16-3.5c4.7-2.4,8.4-5.6,11.1-10
				l1.1,1.2c-2.9,4.5-6.9,8-11.8,10.3c-4.9,2.5-10.5,3.6-16.5,3.7C1302.6,139.1,1297,137.6,1292.7,134.6z"/>
			<path class="st1" d="M1291.1,269.6c-4.4-2.9-7.8-7-9.8-12.1c-2.1-5.1-3.1-10.8-3.1-17.1v-32.2c0-11.7,2.2-20.2,6.9-25.7
				c4.5-5.4,10.8-8.2,18.8-8.2c6.7,0,12.5,1.8,17.2,5.4c4.7,3.6,9.3,8.5,13.7,14.8v-59h4.8V273h-4.9l0.1-12.5l0.1-1.1V201
				c-4.6-6.6-9.2-12-13.8-16.2c-4.6-4-10-6.2-16.2-6.2c-7,0-12.4,2.5-16.1,7.6c-3.7,5.1-5.5,12.6-5.5,22.5v31.5
				c0,5.6,0.8,10.7,2.5,15.1c1.7,4.4,4.4,7.9,8.1,10.5c3.7,2.6,8.8,3.8,15.1,3.8c5.6,0,10.7-1.1,15.2-3.3c4.6-2.1,8.2-5.3,10.9-9.4
				l1.7,3.4c-2.8,4.3-6.6,7.5-11.6,10s-10.5,3.7-16.5,3.7C1301.2,274,1295.5,272.6,1291.1,269.6z"/>
			<path class="st1" d="M1288.5,404.6c-4.6-2.9-8.1-6.9-10.5-11.9s-3.5-10.8-3.5-17.1V341c0-11.5,2.2-19.9,6.9-25.3
				c4.5-5.4,10.9-8.1,19-8.1c7,0,12.8,1.8,17.5,5.2c4.7,3.5,9.1,7.9,13,13.1v-56.1h9.2v137.9h-9.8l0.2-12.6l0.2-2.4v-56.4
				c-4.4-6-8.8-10.8-13-14.6c-4.3-3.7-9.3-5.6-14.9-5.6c-6.2,0-10.9,2.2-14,6.6c-3.1,4.4-4.7,11-4.7,19.7V375
				c0,4.7,0.8,9.1,2.1,12.9c1.5,3.8,3.8,6.9,7.2,9.1s7.9,3.4,13.5,3.4c4.9,0,9.6-0.9,13.8-2.8c4.4-1.9,7.9-4.7,10.5-8.4l2.6,6.4
				c-2.7,3.8-6.5,7-11.5,9.6c-4.9,2.6-10.5,3.8-16.6,3.8C1298.9,409,1293.1,407.5,1288.5,404.6z"/>
			<path class="st1" d="M1286,539.7c-4.8-2.8-8.5-6.7-11.1-11.8c-2.6-4.9-3.9-10.7-3.9-17.1v-37.1c0-11.2,2.2-19.4,6.9-24.7
				c4.6-5.2,11-7.9,19.3-7.9c7.2,0,13.1,1.7,17.8,4.9c4.7,3.4,8.8,7.2,12.4,11.5v-53h13.7v138.1h-14.7l0.2-12.6l0.6-3.6v-54.3
				c-4-5.2-8.2-9.6-12.4-13c-4-3.5-8.7-5.2-13.8-5.2c-5.3,0-9.2,1.9-11.9,5.7c-2.7,3.8-4,9.3-4,16.7V510c0,4,0.7,7.6,1.9,10.8
				c1.2,3.3,3.3,5.8,6.2,7.6c2.9,1.9,6.9,2.8,11.9,2.8c4.3,0,8.4-0.8,12.6-2.4s7.5-4.2,10.1-7.5l3.4,9.6c-2.6,3.4-6.3,6.4-11.1,9.1
				c-4.8,2.6-10.5,3.9-16.7,3.9C1296.5,543.9,1290.8,542.5,1286,539.7z"/>
			<path class="st1" d="M1282.8,674.7c-4.8-2.9-8.7-6.9-11.2-11.9s-3.9-10.9-3.9-17.4v-38.5c0-11.2,2.2-19.6,6.9-24.7
				c4.6-5.2,10.9-7.8,19-7.8c6.9,0,12.5,1.5,17.1,4.5c4.5,3,8.7,6.5,12.2,10.7v-50.1h19.8v138.3h-18.8l-0.2-12.4l-1.1-5.2v-53.5
				c-3.4-4.3-6.9-7.6-10.3-10.5c-3.5-2.7-7.3-4.2-11.5-4.2c-4.4,0-7.6,1.6-9.9,4.6c-2.2,3.1-3.3,7.8-3.3,13.9v33.6
				c0,3.5,0.6,6.6,1.6,9.3c1,2.8,2.8,4.9,5.2,6.5c2.5,1.6,5.7,2.4,9.9,2.4c3.6,0,7.1-0.7,10.6-2s6.3-3.4,8.5-6.1l4.5,12.5
				c-2.5,3-6.1,5.8-10.8,8.4c-4.7,2.6-10.3,3.8-16.9,3.8C1293.5,679,1287.6,677.7,1282.8,674.7z"/>
			<path class="st1" d="M1280.3,809.7c-4.9-2.9-8.8-7-11.3-12c-2.6-5.1-3.9-11-3.9-17.6v-39.8c0-11.3,2.2-19.6,6.9-24.7
				s10.8-7.6,18.8-7.6c6.5,0,12.1,1.3,16.5,4c4.5,2.7,8.4,6.1,12,9.9v-48.1h24.4v138.5h-21.7l-0.4-12.2l-2.4-6.2V741
				c-2.9-3.5-5.8-6.3-8.9-8.5c-2.9-2.2-6.2-3.4-9.6-3.4c-3.7,0-6.5,1.3-8.3,3.9c-1.8,2.6-2.7,6.5-2.7,11.8v33.6c0,3.1,0.4,6,1.3,8.3
				c0.9,2.4,2.4,4.3,4.5,5.6s4.9,2,8.4,2c3.1,0,6.1-0.6,9-1.7c2.9-1.1,5.4-2.8,7.3-4.9l5.4,14.7c-2.2,2.8-5.8,5.4-10.5,7.9
				c-4.7,2.5-10.3,3.7-16.9,3.7C1291.2,814.1,1285.3,812.6,1280.3,809.7z"/>
			<path class="st1" d="M1276,944.9c-5.1-3-8.9-7.1-11.6-12.4s-4-11.2-4-18.1v-41.8c0-11.5,2.2-19.7,6.9-24.7
				c4.6-5.1,10.7-7.5,18.3-7.5c6.1,0,11.2,1.1,15.5,3.4c4.3,2.2,8.2,5.2,11.7,8.8v-44.2h32.6v138.9h-27.1l-1-11.9l-4.5-8.3v-51.7
				c-2-2.2-4-3.9-6.2-5.3c-2-1.2-4.2-1.9-6.2-1.9c-2.5,0-4.3,0.9-5.4,2.5c-1.1,1.7-1.7,4.4-1.7,7.9v33.7c0,2.5,0.3,4.5,1,6.3
				c0.7,1.8,1.7,3.1,3,4c1.3,1,3.3,1.5,5.6,1.5c2.2,0,4.3-0.3,6.2-1.1c2-0.8,3.7-1.8,5.3-3l7,18.7c-2.1,2.2-5.5,4.6-10,7.1
				c-4.5,2.5-10.2,3.7-17.1,3.7C1287.2,949.4,1281,947.8,1276,944.9z"/>
		</g>
	</g>
</g>
</svg>
