<?xml version="1.0" encoding="utf-8"?>
<!-- Generator: Adobe Illustrator 27.9.6, SVG Export Plug-In . SVG Version: 9.03 Build 54986)  -->
<svg version="1.1" id="Layer_1" xmlns="http://www.w3.org/2000/svg" xmlns:xlink="http://www.w3.org/1999/xlink" x="0px" y="0px"
	 viewBox="0 0 70.9 112.2" style="enable-background:new 0 0 70.9 112.2;" xml:space="preserve">
<style type="text/css">
	.st0{fill:#226C84;}
</style>
<g>
	<g>
		<path class="st0" d="M43.2,111.1c-5.4,0-9.8-0.9-13.3-2.8c-3.5-1.9-6.1-3.6-7.6-5.2l5.9-15.6c1,0.7,2.1,1.3,3.4,1.8
			c1.3,0.5,2.6,0.7,4.1,0.7c1.5,0,2.8-0.3,3.7-0.9c0.9-0.6,1.6-1.5,2-2.7c0.4-1.2,0.6-2.6,0.6-4.3V44c0-2.4-0.3-4.1-1-5.1
			c-0.7-1-1.8-1.6-3.4-1.6c-1.2,0-2.5,0.4-3.9,1.1c-1.4,0.7-2.7,1.8-4,3.1v51.6l-4.2,7.1l-0.9,9.2H2V1.3h27.6v21.5
			c2.8-2.7,5.8-4.9,9-6.5c3.3-1.6,7.2-2.4,11.8-2.4c5.9,0,10.5,1.9,14.1,5.8c3.5,3.9,5.3,10.3,5.3,19.2v44.9c0,5.4-1,10.1-3.1,14.2
			c-2.1,4.1-5.1,7.3-9,9.6C53.7,109.9,48.9,111.1,43.2,111.1z"/>
	</g>
</g>
</svg>
